<mxfile host="app.diagrams.net" modified="2024-03-27T10:50:28.717Z" agent="Mozilla/5.0 (Windows NT 10.0; Win64; x64) AppleWebKit/537.36 (KHTML, like Gecko) Chrome/123.0.0.0 Safari/537.36" etag="1o9tTZpV3sNwgmsTiicn" version="24.1.0" type="github">
  <diagram name="Page-1" id="74e2e168-ea6b-b213-b513-2b3c1d86103e">
    <mxGraphModel dx="1512" dy="600" grid="1" gridSize="10" guides="1" tooltips="1" connect="1" arrows="1" fold="1" page="1" pageScale="1" pageWidth="1100" pageHeight="850" background="none" math="0" shadow="0">
      <root>
        <mxCell id="0" />
        <mxCell id="1" parent="0" />
        <mxCell id="77e6c97f196da883-1" value="&lt;font style=&quot;font-size: 18px;&quot;&gt;discord&lt;/font&gt;" style="swimlane;html=1;childLayout=stackLayout;startSize=20;rounded=0;shadow=0;labelBackgroundColor=none;strokeWidth=1;fontFamily=Verdana;fontSize=8;align=center;" parent="1" vertex="1">
          <mxGeometry x="70" y="40" width="960" height="750" as="geometry" />
        </mxCell>
        <mxCell id="77e6c97f196da883-2" value="login" style="swimlane;html=1;startSize=20;" parent="77e6c97f196da883-1" vertex="1">
          <mxGeometry y="20" width="350" height="730" as="geometry" />
        </mxCell>
        <mxCell id="77e6c97f196da883-8" value="&lt;font style=&quot;font-size: 12px;&quot;&gt;登入&lt;/font&gt;" style="rounded=1;whiteSpace=wrap;html=1;shadow=0;labelBackgroundColor=none;strokeWidth=1;fontFamily=Verdana;fontSize=8;align=center;" parent="77e6c97f196da883-2" vertex="1">
          <mxGeometry x="125" y="120" width="100" height="60" as="geometry" />
        </mxCell>
        <mxCell id="77e6c97f196da883-9" value="&lt;span style=&quot;font-size: 12px;&quot;&gt;暗碼比對模組&lt;/span&gt;" style="rounded=1;whiteSpace=wrap;html=1;shadow=0;labelBackgroundColor=none;strokeWidth=1;fontFamily=Verdana;fontSize=8;align=center;" parent="77e6c97f196da883-2" vertex="1">
          <mxGeometry x="125" y="210" width="100" height="60" as="geometry" />
        </mxCell>
        <mxCell id="TCiXfk5xuBNNh0pUbAXc-111" style="edgeStyle=orthogonalEdgeStyle;rounded=0;orthogonalLoop=1;jettySize=auto;html=1;exitX=1;exitY=0.5;exitDx=0;exitDy=0;" edge="1" parent="77e6c97f196da883-2" source="77e6c97f196da883-10">
          <mxGeometry relative="1" as="geometry">
            <mxPoint x="500" y="500.090909090909" as="targetPoint" />
          </mxGeometry>
        </mxCell>
        <mxCell id="77e6c97f196da883-10" value="&lt;span style=&quot;font-size: 12px;&quot;&gt;admin：發貼文&lt;/span&gt;" style="rounded=1;whiteSpace=wrap;html=1;shadow=0;labelBackgroundColor=none;strokeWidth=1;fontFamily=Verdana;fontSize=8;align=center;" parent="77e6c97f196da883-2" vertex="1">
          <mxGeometry x="110" y="470" width="130" height="60" as="geometry" />
        </mxCell>
        <mxCell id="TCiXfk5xuBNNh0pUbAXc-46" value="&lt;font style=&quot;font-size: 12px;&quot;&gt;/login&lt;/font&gt;" style="rounded=1;whiteSpace=wrap;html=1;shadow=0;labelBackgroundColor=none;strokeWidth=1;fontFamily=Verdana;fontSize=8;align=center;" vertex="1" parent="77e6c97f196da883-2">
          <mxGeometry y="20" width="350" height="30" as="geometry" />
        </mxCell>
        <mxCell id="77e6c97f196da883-26" style="edgeStyle=orthogonalEdgeStyle;rounded=1;html=1;labelBackgroundColor=none;startArrow=none;startFill=0;startSize=5;endArrow=classicThin;endFill=1;endSize=5;jettySize=auto;orthogonalLoop=1;strokeWidth=1;fontFamily=Verdana;fontSize=8;exitX=0.5;exitY=1;exitDx=0;exitDy=0;entryX=0.5;entryY=0;entryDx=0;entryDy=0;" parent="77e6c97f196da883-2" source="77e6c97f196da883-8" target="77e6c97f196da883-9" edge="1">
          <mxGeometry relative="1" as="geometry" />
        </mxCell>
        <mxCell id="TCiXfk5xuBNNh0pUbAXc-58" style="edgeStyle=orthogonalEdgeStyle;rounded=0;orthogonalLoop=1;jettySize=auto;html=1;exitX=0;exitY=0.5;exitDx=0;exitDy=0;entryX=0;entryY=0.5;entryDx=0;entryDy=0;" edge="1" parent="77e6c97f196da883-2" source="TCiXfk5xuBNNh0pUbAXc-49" target="77e6c97f196da883-8">
          <mxGeometry relative="1" as="geometry">
            <Array as="points">
              <mxPoint x="79.91" y="240" />
              <mxPoint x="79.91" y="150" />
            </Array>
          </mxGeometry>
        </mxCell>
        <mxCell id="TCiXfk5xuBNNh0pUbAXc-49" value="&lt;font style=&quot;font-size: 14px;&quot;&gt;x&lt;/font&gt;" style="rhombus;whiteSpace=wrap;html=1;rounded=0;shadow=0;labelBackgroundColor=none;strokeWidth=1;fontFamily=Verdana;fontSize=8;align=center;" vertex="1" parent="77e6c97f196da883-2">
          <mxGeometry x="98.91" y="220" width="35" height="40" as="geometry" />
        </mxCell>
        <mxCell id="TCiXfk5xuBNNh0pUbAXc-60" style="edgeStyle=orthogonalEdgeStyle;rounded=0;orthogonalLoop=1;jettySize=auto;html=1;exitX=0.5;exitY=1;exitDx=0;exitDy=0;entryX=0.5;entryY=0;entryDx=0;entryDy=0;" edge="1" parent="77e6c97f196da883-2" source="TCiXfk5xuBNNh0pUbAXc-54" target="TCiXfk5xuBNNh0pUbAXc-59">
          <mxGeometry relative="1" as="geometry" />
        </mxCell>
        <mxCell id="TCiXfk5xuBNNh0pUbAXc-54" value="&lt;font style=&quot;font-size: 14px;&quot;&gt;O&lt;/font&gt;" style="rhombus;whiteSpace=wrap;html=1;rounded=0;shadow=0;labelBackgroundColor=none;strokeWidth=1;fontFamily=Verdana;fontSize=8;align=center;" vertex="1" parent="77e6c97f196da883-2">
          <mxGeometry x="157.5" y="260" width="35" height="40" as="geometry" />
        </mxCell>
        <mxCell id="TCiXfk5xuBNNh0pUbAXc-99" style="edgeStyle=orthogonalEdgeStyle;rounded=0;orthogonalLoop=1;jettySize=auto;html=1;exitX=0;exitY=0.5;exitDx=0;exitDy=0;entryX=0;entryY=0.5;entryDx=0;entryDy=0;" edge="1" parent="77e6c97f196da883-2" source="TCiXfk5xuBNNh0pUbAXc-59" target="77e6c97f196da883-10">
          <mxGeometry relative="1" as="geometry">
            <Array as="points">
              <mxPoint x="-10" y="355" />
              <mxPoint x="-10" y="500" />
            </Array>
          </mxGeometry>
        </mxCell>
        <mxCell id="TCiXfk5xuBNNh0pUbAXc-101" style="edgeStyle=orthogonalEdgeStyle;rounded=0;orthogonalLoop=1;jettySize=auto;html=1;exitX=0;exitY=0.5;exitDx=0;exitDy=0;entryX=0;entryY=0.5;entryDx=0;entryDy=0;" edge="1" parent="77e6c97f196da883-2" source="TCiXfk5xuBNNh0pUbAXc-59" target="TCiXfk5xuBNNh0pUbAXc-98">
          <mxGeometry relative="1" as="geometry">
            <Array as="points">
              <mxPoint x="-30" y="355" />
              <mxPoint x="-30" y="600" />
            </Array>
          </mxGeometry>
        </mxCell>
        <mxCell id="TCiXfk5xuBNNh0pUbAXc-59" value="&lt;span style=&quot;font-size: 12px;&quot;&gt;權限區分模組&lt;/span&gt;" style="rounded=1;whiteSpace=wrap;html=1;shadow=0;labelBackgroundColor=none;strokeWidth=1;fontFamily=Verdana;fontSize=8;align=center;" vertex="1" parent="77e6c97f196da883-2">
          <mxGeometry x="125" y="325" width="100" height="60" as="geometry" />
        </mxCell>
        <mxCell id="TCiXfk5xuBNNh0pUbAXc-112" style="edgeStyle=orthogonalEdgeStyle;rounded=0;orthogonalLoop=1;jettySize=auto;html=1;exitX=1;exitY=0.5;exitDx=0;exitDy=0;" edge="1" parent="77e6c97f196da883-2" source="TCiXfk5xuBNNh0pUbAXc-98">
          <mxGeometry relative="1" as="geometry">
            <mxPoint x="500" y="600.090909090909" as="targetPoint" />
          </mxGeometry>
        </mxCell>
        <mxCell id="TCiXfk5xuBNNh0pUbAXc-98" value="&lt;span style=&quot;font-size: 12px;&quot;&gt;normal：發訊息&lt;/span&gt;" style="rounded=1;whiteSpace=wrap;html=1;shadow=0;labelBackgroundColor=none;strokeWidth=1;fontFamily=Verdana;fontSize=8;align=center;" vertex="1" parent="77e6c97f196da883-2">
          <mxGeometry x="110" y="570" width="130" height="60" as="geometry" />
        </mxCell>
        <mxCell id="TCiXfk5xuBNNh0pUbAXc-113" value="&lt;font style=&quot;font-size: 12px;&quot;&gt;權限：all&lt;/font&gt;" style="rounded=1;whiteSpace=wrap;html=1;shadow=0;labelBackgroundColor=none;strokeWidth=1;fontFamily=Verdana;fontSize=8;align=center;" vertex="1" parent="77e6c97f196da883-2">
          <mxGeometry y="50" width="350" height="30" as="geometry" />
        </mxCell>
        <mxCell id="77e6c97f196da883-40" style="edgeStyle=orthogonalEdgeStyle;rounded=1;html=1;labelBackgroundColor=none;startArrow=none;startFill=0;startSize=5;endArrow=classicThin;endFill=1;endSize=5;jettySize=auto;orthogonalLoop=1;strokeWidth=1;fontFamily=Verdana;fontSize=8" parent="77e6c97f196da883-1" target="77e6c97f196da883-24" edge="1">
          <mxGeometry relative="1" as="geometry">
            <mxPoint x="770" y="690" as="sourcePoint" />
          </mxGeometry>
        </mxCell>
        <mxCell id="107ba76e4e335f99-3" style="edgeStyle=orthogonalEdgeStyle;rounded=1;html=1;labelBackgroundColor=none;startArrow=none;startFill=0;startSize=5;endArrow=classicThin;endFill=1;endSize=5;jettySize=auto;orthogonalLoop=1;strokeColor=#000000;strokeWidth=1;fontFamily=Verdana;fontSize=8;fontColor=#000000;" parent="77e6c97f196da883-1" target="77e6c97f196da883-19" edge="1">
          <mxGeometry relative="1" as="geometry">
            <mxPoint x="670" y="610" as="sourcePoint" />
          </mxGeometry>
        </mxCell>
        <mxCell id="77e6c97f196da883-3" value="join" style="swimlane;html=1;startSize=20;" parent="77e6c97f196da883-1" vertex="1">
          <mxGeometry x="350" y="20" width="300" height="730" as="geometry" />
        </mxCell>
        <mxCell id="TCiXfk5xuBNNh0pUbAXc-103" style="edgeStyle=orthogonalEdgeStyle;rounded=0;orthogonalLoop=1;jettySize=auto;html=1;exitX=0.5;exitY=1;exitDx=0;exitDy=0;entryX=0.5;entryY=0;entryDx=0;entryDy=0;" edge="1" parent="77e6c97f196da883-3" source="77e6c97f196da883-11" target="TCiXfk5xuBNNh0pUbAXc-62">
          <mxGeometry relative="1" as="geometry" />
        </mxCell>
        <mxCell id="77e6c97f196da883-11" value="&lt;font style=&quot;font-size: 12px;&quot;&gt;加入群組&lt;/font&gt;" style="rounded=1;whiteSpace=wrap;html=1;shadow=0;labelBackgroundColor=none;strokeWidth=1;fontFamily=Verdana;fontSize=8;align=center;" parent="77e6c97f196da883-3" vertex="1">
          <mxGeometry x="100" y="180" width="100" height="60" as="geometry" />
        </mxCell>
        <mxCell id="TCiXfk5xuBNNh0pUbAXc-47" value="&lt;font style=&quot;font-size: 12px;&quot;&gt;/join/**&lt;/font&gt;" style="rounded=1;whiteSpace=wrap;html=1;shadow=0;labelBackgroundColor=none;strokeWidth=1;fontFamily=Verdana;fontSize=8;align=center;" vertex="1" parent="77e6c97f196da883-3">
          <mxGeometry y="20" width="300" height="30" as="geometry" />
        </mxCell>
        <mxCell id="TCiXfk5xuBNNh0pUbAXc-62" value="&lt;font style=&quot;font-size: 12px;&quot;&gt;加入聊天室&lt;/font&gt;" style="rounded=1;whiteSpace=wrap;html=1;shadow=0;labelBackgroundColor=none;strokeWidth=1;fontFamily=Verdana;fontSize=8;align=center;" vertex="1" parent="77e6c97f196da883-3">
          <mxGeometry x="100" y="350" width="100" height="60" as="geometry" />
        </mxCell>
        <mxCell id="TCiXfk5xuBNNh0pUbAXc-114" value="&lt;font style=&quot;font-size: 12px;&quot;&gt;權限：all&lt;/font&gt;" style="rounded=1;whiteSpace=wrap;html=1;shadow=0;labelBackgroundColor=none;strokeWidth=1;fontFamily=Verdana;fontSize=8;align=center;" vertex="1" parent="77e6c97f196da883-3">
          <mxGeometry y="50" width="300" height="30" as="geometry" />
        </mxCell>
        <mxCell id="TCiXfk5xuBNNh0pUbAXc-102" style="edgeStyle=orthogonalEdgeStyle;rounded=0;orthogonalLoop=1;jettySize=auto;html=1;exitX=1;exitY=0.5;exitDx=0;exitDy=0;entryX=0;entryY=0.5;entryDx=0;entryDy=0;" edge="1" parent="77e6c97f196da883-1" source="TCiXfk5xuBNNh0pUbAXc-59" target="77e6c97f196da883-11">
          <mxGeometry relative="1" as="geometry" />
        </mxCell>
        <mxCell id="TCiXfk5xuBNNh0pUbAXc-107" style="edgeStyle=orthogonalEdgeStyle;rounded=0;orthogonalLoop=1;jettySize=auto;html=1;exitX=0.5;exitY=1;exitDx=0;exitDy=0;entryX=0;entryY=0.5;entryDx=0;entryDy=0;" edge="1" parent="77e6c97f196da883-1" source="TCiXfk5xuBNNh0pUbAXc-62" target="TCiXfk5xuBNNh0pUbAXc-104">
          <mxGeometry relative="1" as="geometry" />
        </mxCell>
        <mxCell id="TCiXfk5xuBNNh0pUbAXc-108" style="edgeStyle=orthogonalEdgeStyle;rounded=0;orthogonalLoop=1;jettySize=auto;html=1;exitX=0.5;exitY=1;exitDx=0;exitDy=0;entryX=0;entryY=0.5;entryDx=0;entryDy=0;" edge="1" parent="77e6c97f196da883-1" source="TCiXfk5xuBNNh0pUbAXc-62" target="TCiXfk5xuBNNh0pUbAXc-105">
          <mxGeometry relative="1" as="geometry" />
        </mxCell>
        <mxCell id="77e6c97f196da883-4" value="message" style="swimlane;html=1;startSize=20;" parent="77e6c97f196da883-1" vertex="1">
          <mxGeometry x="650" y="20" width="310" height="730" as="geometry" />
        </mxCell>
        <mxCell id="TCiXfk5xuBNNh0pUbAXc-48" value="&lt;font style=&quot;font-size: 12px;&quot;&gt;發貼文：/message/admin/**&lt;/font&gt;" style="rounded=1;whiteSpace=wrap;html=1;shadow=0;labelBackgroundColor=none;strokeWidth=1;fontFamily=Verdana;fontSize=8;align=center;" vertex="1" parent="77e6c97f196da883-4">
          <mxGeometry y="20" width="310" height="30" as="geometry" />
        </mxCell>
        <mxCell id="TCiXfk5xuBNNh0pUbAXc-104" value="&lt;span style=&quot;font-size: 12px;&quot;&gt;發貼文&lt;/span&gt;" style="rounded=1;whiteSpace=wrap;html=1;shadow=0;labelBackgroundColor=none;strokeWidth=1;fontFamily=Verdana;fontSize=8;align=center;" vertex="1" parent="77e6c97f196da883-4">
          <mxGeometry x="110" y="470" width="100" height="60" as="geometry" />
        </mxCell>
        <mxCell id="TCiXfk5xuBNNh0pUbAXc-105" value="&lt;span style=&quot;font-size: 12px;&quot;&gt;發訊息&lt;/span&gt;" style="rounded=1;whiteSpace=wrap;html=1;shadow=0;labelBackgroundColor=none;strokeWidth=1;fontFamily=Verdana;fontSize=8;align=center;" vertex="1" parent="77e6c97f196da883-4">
          <mxGeometry x="110" y="570" width="100" height="60" as="geometry" />
        </mxCell>
        <mxCell id="TCiXfk5xuBNNh0pUbAXc-115" value="&lt;font style=&quot;font-size: 12px;&quot;&gt;發訊息：/message/normal/**&lt;/font&gt;" style="rounded=1;whiteSpace=wrap;html=1;shadow=0;labelBackgroundColor=none;strokeWidth=1;fontFamily=Verdana;fontSize=8;align=center;" vertex="1" parent="77e6c97f196da883-4">
          <mxGeometry y="50" width="310" height="30" as="geometry" />
        </mxCell>
      </root>
    </mxGraphModel>
  </diagram>
</mxfile>
